<svg data-v-fde0c5aa="" xmlns="http://www.w3.org/2000/svg" viewBox="0 0 300 300" class="iconAbove"><!----><defs data-v-fde0c5aa=""><!----></defs><rect data-v-fde0c5aa="" fill="transparent" x="0" y="0" width="300px" height="300px" class="logo-background-square"></rect><defs data-v-fde0c5aa=""><!----></defs><g data-v-fde0c5aa="" id="455e533c-5b42-4055-8a44-4c13288409aa" fill="#000000" transform="matrix(6.640367953998414,0,0,6.640367953998414,94.45332081408546,167.5660759905351)"><path d=""></path></g><defs data-v-fde0c5aa=""><linearGradient data-v-fde0c5aa="" gradientTransform="rotate(25)" id="0eb1fde7-df99-48af-a321-d53c32d13fb9" x1="0%" y1="0%" x2="100%" y2="0%"><stop data-v-fde0c5aa="" offset="0%" stop-color="#3616AC" stop-opacity="1"></stop><stop data-v-fde0c5aa="" offset="100%" stop-color="#E09BED" stop-opacity="1"></stop></linearGradient></defs><g data-v-fde0c5aa="" id="75d030a7-5ad0-47c1-b97d-ff54d38c6728" stroke="none" fill="url(#0eb1fde7-df99-48af-a321-d53c32d13fb9)" transform="matrix(4.267545560544679,0,0,4.267545560544679,81.71927461426219,39.05260487334954)"><path d="M16 23.787L8.102 16 16 8.213 23.898 16 16 23.787zM9.525 16L16 22.383 22.475 16 16 9.617 9.525 16z"></path><path d="M15.915 31.778L-.005 16.084 16.085.222l15.92 15.694-16.09 15.862zM1.419 16.084l14.496 14.29 14.666-14.458-14.496-14.29L1.419 16.084z"></path><path d="M15.5.924h1v30.152h-1z"></path></g><!----></svg>